# xmcd
#
# Track frame offsets:
#   150
#   30876
#   50433
#   71501
#   90721
#   112065
#   132398
#   158164
#   173366
#   199853
#   215118
#   247696
#   270966
#   296299
#   334061
#
# Disc length: 4728 seconds
#
# Revision: 0
# Processed by: cddbd v1.5.2PL0 Copyright (c) Steve Scherf et al.
# Submitted via: GXTranscoder 2.0.1939
#
DISCID=cb12760f
DTITLE=remix - remix
DYEAR=1900
DGENRE=Alternative
TTITLE0=remix
TTITLE1=gggg
TTITLE2=ttff
TTITLE3=tttt
TTITLE4=ffftz
TTITLE5=cdfd
TTITLE6=ccc
TTITLE7=vvvvvvv
TTITLE8=bbb
TTITLE9=vvv
TTITLE10=vvvv
TTITLE11=jjjj
TTITLE12=kkkjh
TTITLE13=kkk
TTITLE14=jhzh
EXTD=f
EXTT0=
EXTT1=
EXTT2=
EXTT3=
EXTT4=
EXTT5=
EXTT6=
EXTT7=
EXTT8=
EXTT9=
EXTT10=
EXTT11=
EXTT12=
EXTT13=
EXTT14=
PLAYORDER=
